<?xml version="1.0" encoding="utf-8"?>
<!-- Generator: Adobe Illustrator 20.1.0, SVG Export Plug-In . SVG Version: 6.00 Build 0)  -->
<svg version="1.1" id="Layer_1" xmlns="http://www.w3.org/2000/svg" xmlns:xlink="http://www.w3.org/1999/xlink" x="0px" y="0px"
	 viewBox="0 0 1093.3 504" style="enable-background:new 0 0 1093.3 504;" xml:space="preserve">
<style type="text/css">
	.st0{fill:#FFFFFF;stroke:#FFFFFF;stroke-width:2.2956;stroke-miterlimit:10;}
	.st1{fill:#FFFFFF;stroke:#FFFFFF;stroke-width:0.7652;}
	.st2{fill:none;stroke:#FFFFFF;stroke-width:3.0608;}
	.st3{fill:#FFFFFF;}
</style>
<path class="st0" d="M7.7,159.2h44.4c11.4,0,20.1,2.9,25.9,8.8c4.4,4.4,6.7,9.9,6.7,16.4v0.3c0,3-0.4,5.7-1.2,8
	c-0.8,2.3-1.8,4.4-3.1,6.1c-1.3,1.8-2.8,3.3-4.5,4.6s-3.5,2.5-5.3,3.4c2.9,1,5.6,2.2,8,3.6c2.4,1.4,4.5,3,6.2,4.9s3.1,4.1,4,6.7
	c0.9,2.6,1.4,5.5,1.4,8.9v0.3c0,4.4-0.9,8.4-2.6,11.8c-1.7,3.4-4.2,6.2-7.4,8.5c-3.2,2.3-7.1,4-11.6,5.2s-9.5,1.8-15,1.8H7.7V159.2z
	 M48.8,201.1c5.7,0,10.2-1.1,13.6-3.3s5.1-5.6,5.1-10.1v-0.3c0-4-1.5-7.1-4.5-9.3s-7.3-3.3-12.9-3.3h-25v26.4L48.8,201.1L48.8,201.1
	z M53.8,243c5.9,0,10.6-1.1,14-3.4c3.4-2.3,5.1-5.7,5.1-10.2v-0.3c0-4.3-1.7-7.5-5-9.9c-3.3-2.3-8.5-3.5-15.3-3.5H25V243H53.8z"/>
<path class="st0" d="M107.5,159.2h17.3v99.3h-17.3V159.2z"/>
<path class="st0" d="M195.3,260.2c-7.7,0-14.7-1.4-21-4c-6.3-2.7-11.8-6.4-16.3-11s-8.1-10-10.6-16.2c-2.6-6.2-3.8-12.8-3.8-19.8
	v-0.3c0-7,1.3-13.6,3.8-19.8c2.6-6.2,6.1-11.6,10.8-16.3c4.6-4.7,10.1-8.4,16.4-11.1c6.3-2.7,13.3-4.1,21-4.1s14.7,1.4,21,4
	c6.3,2.7,11.8,6.4,16.3,11s8.1,10,10.6,16.2c2.6,6.2,3.8,12.8,3.8,19.8v0.3c0,7-1.3,13.6-3.8,19.8c-2.6,6.2-6.1,11.6-10.8,16.3
	c-4.6,4.7-10.1,8.4-16.4,11.1C210,258.8,203,260.2,195.3,260.2z M195.6,244.2c4.9,0,9.4-0.9,13.5-2.8c4.1-1.8,7.6-4.4,10.5-7.5
	c2.9-3.2,5.2-6.9,6.8-11.1c1.6-4.2,2.5-8.8,2.5-13.6v-0.3c0-4.8-0.8-9.4-2.5-13.7c-1.6-4.3-4-8-6.9-11.2c-3-3.2-6.5-5.7-10.7-7.6
	c-4.1-1.9-8.7-2.8-13.6-2.8s-9.4,0.9-13.5,2.8c-4.1,1.8-7.6,4.3-10.5,7.5s-5.2,6.9-6.8,11.1c-1.6,4.3-2.5,8.8-2.5,13.6v0.3
	c0,4.8,0.8,9.4,2.5,13.7c1.6,4.3,4,8,6.9,11.2c3,3.2,6.5,5.7,10.7,7.6C186.2,243.2,190.7,244.2,195.6,244.2z"/>
<path class="st0" d="M311.2,260.2c-7.3,0-14-1.3-20.1-4c-6.1-2.6-11.5-6.3-16-10.9c-4.5-4.6-8.1-10-10.6-16.2
	c-2.6-6.2-3.9-12.9-3.9-20v-0.3c0-7.1,1.3-13.7,3.8-19.9s6.1-11.6,10.6-16.3c4.6-4.7,10-8.4,16.2-11.1c6.2-2.7,13.1-4,20.7-4
	c4.5,0,8.7,0.4,12.4,1.1c3.7,0.8,7.2,1.8,10.3,3.2s6,3,8.7,4.9c2.6,1.9,5.1,4,7.5,6.2l-11.2,12.9c-4-3.7-8.2-6.7-12.6-8.9
	c-4.4-2.3-9.5-3.4-15.2-3.4c-4.7,0-9.1,0.9-13.1,2.8c-4,1.8-7.5,4.3-10.4,7.5s-5.2,6.9-6.8,11.1c-1.6,4.3-2.4,8.8-2.4,13.6v0.3
	c0,4.8,0.8,9.4,2.4,13.7c1.6,4.3,3.9,8.1,6.8,11.3c2.9,3.2,6.4,5.7,10.4,7.6c4,1.8,8.4,2.8,13.1,2.8c6,0,11.3-1.2,15.6-3.5
	s8.7-5.5,12.9-9.4l11.2,11.3c-2.6,2.7-5.2,5.2-8,7.3s-5.8,4-9,5.5c-3.2,1.6-6.7,2.7-10.6,3.5C320,259.8,315.8,260.2,311.2,260.2z"/>
<path class="st0" d="M366.1,159.2h17.3v83.5h52.2v15.7h-69.5V159.2z"/>
<path class="st0" d="M451.3,159.2h17.3v99.3h-17.3V159.2z"/>
<path class="st0" d="M491.7,159.2h16.1l53.1,68.6v-68.6h17.3v99.3h-14.6L509,187.9v70.6h-17.3V159.2z"/>
<path class="st0" d="M601.2,159.2h17.3v99.3h-17.3V159.2z"/>
<path class="st0" d="M687.8,260.2c-7.3,0-14-1.3-20.1-4c-6.1-2.6-11.5-6.3-16-10.9c-4.5-4.6-8.1-10-10.6-16.2
	c-2.6-6.2-3.9-12.9-3.9-20v-0.3c0-7.1,1.3-13.7,3.8-19.9s6.1-11.6,10.6-16.3c4.6-4.7,10-8.4,16.2-11.1c6.2-2.7,13.1-4,20.7-4
	c4.5,0,8.7,0.4,12.4,1.1c3.7,0.8,7.2,1.8,10.3,3.2s6,3,8.7,4.9c2.6,1.9,5.2,4,7.5,6.2l-11.2,12.9c-4-3.7-8.2-6.7-12.6-8.9
	c-4.4-2.3-9.5-3.4-15.2-3.4c-4.7,0-9.1,0.9-13.1,2.8c-4,1.8-7.5,4.3-10.4,7.5s-5.2,6.9-6.8,11.1c-1.6,4.3-2.4,8.8-2.4,13.6v0.3
	c0,4.8,0.8,9.4,2.4,13.7c1.6,4.3,3.9,8.1,6.8,11.3c2.9,3.2,6.4,5.7,10.4,7.6c4,1.8,8.4,2.8,13.1,2.8c6,0,11.3-1.2,15.6-3.5
	s8.7-5.5,12.9-9.4l11.2,11.3c-2.6,2.7-5.2,5.2-8,7.3s-5.8,4-9,5.5c-3.2,1.6-6.7,2.7-10.6,3.5C696.7,259.8,692.5,260.2,687.8,260.2z"
	/>
<path class="st0" d="M777.9,158.5h16.2l43.7,100h-18.4l-10.1-24h-46.9l-10.2,24h-17.9L777.9,158.5z M802.8,219.1l-17.2-39.7
	l-17,39.7H802.8z"/>
<path class="st1" d="M843.9,142.6h7.3c2.1,0,3.8,0.6,4.9,1.8c0.9,0.8,1.3,2,1.3,3.4v0.1c0,1.3-0.3,2.4-1.1,3.2
	c-0.7,0.8-1.6,1.4-2.7,1.7l4.4,6.2h-3.7l-4-5.6h-0.1h-3.3v5.6h-3.1L843.9,142.6L843.9,142.6z M851,150.6c1,0,1.8-0.2,2.4-0.7
	s0.9-1.1,0.9-1.9l0,0c0-0.8-0.3-1.5-0.9-1.9s-1.4-0.6-2.4-0.6h-4v5.2L851,150.6L851,150.6z"/>
<circle class="st2" cx="849.9" cy="150.8" r="15.3"/>
<path class="st3" d="M979.6,115.6c-51.1,0-92.5,41.4-92.5,92.5s41.4,92.5,92.5,92.5c5.2,0,10.3-0.4,15.3-1.3V193.7l-24.4,6
	l-6.4-25.2l40.2-12h21v126.1c28-15.9,46.8-46,46.8-80.5C1072.1,157,1030.7,115.6,979.6,115.6z"/>
</svg>
