<?xml version="1.0" encoding="utf-8"?>
<!-- Generator: Adobe Illustrator 20.1.0, SVG Export Plug-In . SVG Version: 6.00 Build 0)  -->
<svg version="1.1" id="Layer_1" xmlns="http://www.w3.org/2000/svg" xmlns:xlink="http://www.w3.org/1999/xlink" x="0px" y="0px"
	 viewBox="0 0 24 24" style="enable-background:new 0 0 24 24;" xml:space="preserve">
<style type="text/css">
	.st0{fill:none;}
	.st1{fill:#007AFF;}
</style>
<path class="st0" d="M0,0h24v24H0V0z"/>
<path class="st1" d="M19.3,17.1c-1.1-0.9-1.8-2.2-1.8-3.6v-3c0-2.5-1.7-4.6-4-5.3V4.5C13.5,3.7,12.8,3,12,3s-1.5,0.7-1.5,1.5v0.7
	c-2.3,0.7-4,2.8-4,5.3v3c0,1.4-0.7,2.7-1.8,3.6c-0.2,0.1-0.2,0.4-0.2,0.6C4.6,17.9,4.8,18,5,18h4.6c0,0.2-0.1,0.3-0.1,0.5
	c0,1.4,1.1,2.5,2.5,2.5s2.5-1.1,2.5-2.5c0-0.2,0-0.3-0.1-0.5H19c0.2,0,0.4-0.1,0.5-0.3S19.5,17.2,19.3,17.1L19.3,17.1z M11.5,4.5
	C11.5,4.2,11.7,4,12,4s0.5,0.2,0.5,0.5V5c-0.2,0-0.3,0-0.5,0s-0.3,0-0.5,0V4.5z M13.5,18.5c0,0.8-0.7,1.5-1.5,1.5s-1.5-0.7-1.5-1.5
	c0-0.2,0-0.3,0.1-0.5h2.8C13.5,18.2,13.5,18.3,13.5,18.5z"/>
</svg>
