<?xml version="1.0" encoding="utf-8"?>
<!-- Generator: Adobe Illustrator 20.1.0, SVG Export Plug-In . SVG Version: 6.00 Build 0)  -->
<svg version="1.1" id="Layer_1" xmlns="http://www.w3.org/2000/svg" xmlns:xlink="http://www.w3.org/1999/xlink" x="0px" y="0px"
	 viewBox="0 0 24 24" style="enable-background:new 0 0 24 24;" xml:space="preserve">
<style type="text/css">
	.st0{fill:none;}
	.st1{fill:#007AFF;}
	.st2{fill:#FFFFFF;}
</style>
<path class="st0" d="M0,0h24v24H0V0z"/>
<g>
	<path class="st1" d="M18.5,21.2h-13c-0.8,0-1.5-0.7-1.5-1.5v-16c0-0.8,0.7-1.5,1.5-1.5h13c0.8,0,1.5,0.7,1.5,1.5v16
		C20,20.5,19.3,21.2,18.5,21.2z"/>
</g>
<path class="st2" d="M14.5,6.2h-7C7.2,6.2,7,6,7,5.7s0.2-0.5,0.5-0.5h7c0.3,0,0.5,0.2,0.5,0.5S14.8,6.2,14.5,6.2z"/>
<path class="st2" d="M16.5,8.2h-9C7.2,8.2,7,8,7,7.7s0.2-0.5,0.5-0.5h9c0.3,0,0.5,0.2,0.5,0.5S16.8,8.2,16.5,8.2z"/>
<path class="st2" d="M16.5,10.2h-9C7.2,10.2,7,10,7,9.7s0.2-0.5,0.5-0.5h9c0.3,0,0.5,0.2,0.5,0.5S16.8,10.2,16.5,10.2z"/>
<path class="st2" d="M12.5,12.2h-5C7.2,12.2,7,12,7,11.7s0.2-0.5,0.5-0.5h5c0.3,0,0.5,0.2,0.5,0.5S12.8,12.2,12.5,12.2z"/>
<path class="st2" d="M16.5,16.2h-9C7.2,16.2,7,16,7,15.7s0.2-0.5,0.5-0.5h9c0.3,0,0.5,0.2,0.5,0.5S16.8,16.2,16.5,16.2z"/>
<path class="st2" d="M14.5,18.2h-7C7.2,18.2,7,18,7,17.7s0.2-0.5,0.5-0.5h7c0.3,0,0.5,0.2,0.5,0.5S14.8,18.2,14.5,18.2z"/>
</svg>
