<?xml version="1.0" encoding="utf-8"?>
<!-- Generator: Adobe Illustrator 20.1.0, SVG Export Plug-In . SVG Version: 6.00 Build 0)  -->
<svg version="1.1" id="Layer_1" xmlns="http://www.w3.org/2000/svg" xmlns:xlink="http://www.w3.org/1999/xlink" x="0px" y="0px"
	 viewBox="0 0 24 24" style="enable-background:new 0 0 24 24;" xml:space="preserve">
<style type="text/css">
	.st0{fill:#757575;}
</style>
<g>
	<path class="st0" d="M11.8,5C11.4,3.8,10.3,3,9,3S6.6,3.8,6.2,5H2v2h4.2C6.6,8.2,7.7,9,9,9s2.4-0.8,2.8-2H22V5H11.8z"/>
	<path class="st0" d="M15,9c-1.3,0-2.4,0.8-2.8,2H2v2h10.2c0.4,1.2,1.5,2,2.8,2s2.4-0.8,2.8-2H22v-2h-4.2C17.4,9.8,16.3,9,15,9z"/>
	<path class="st0" d="M11,15c-1.3,0-2.4,0.8-2.8,2H2v2h6.2c0.4,1.2,1.5,2,2.8,2s2.4-0.8,2.8-2H22v-2h-8.2C13.4,15.8,12.3,15,11,15z"
		/>
</g>
</svg>
